# xmcd CD database file
#
# Track frame offsets:
#	150
#	39452
#	67855
#	84122
#	115177
#	147160
#	163405
#	236012
#
# Disc length: 3877 seconds
#
# Revision: 0
# Processed by: cddbd v1.5.2PL0 Copyright (c) Steve Scherf et al.
# Submitted via: CDex 1.70beta2
#
DISCID=610f2308
DTITLE=Gabriele Hasler - Flow
DYEAR=2004
DGENRE=Jazz
TTITLE0=Sequence I, The Waves
TTITLE1=Sequence II, On The Road
TTITLE2=Sequence III, Howl
TTITLE3=Sequence IV, Under The Volcano
TTITLE4=Sequence V, Airconditioned Nightmare
TTITLE5=Sequence VI, A  Streetcar Nemed Desire
TTITLE6=Sequence VII, The Lost Ones
TTITLE7=Sequence VIII, The Bell Jar
EXTD=YEAR: 2004
EXTT0=
EXTT1=
EXTT2=
EXTT3=
EXTT4=
EXTT5=
EXTT6=
EXTT7=
PLAYORDER=
